<?xml version="1.0" encoding="UTF-8" standalone="no"?>
<svg
   viewBox="0 0 512 512"
   width="512"
   height="512"
   version="1.1"
   id="svg1"
   sodipodi:docname="heavy-cover.svg"
   inkscape:export-filename="..\..\..\..\..\..\Users\stanm\Pictures\Swade\no-cover.svg"
   inkscape:export-xdpi="96"
   inkscape:export-ydpi="96"
   inkscape:version="1.3.2 (091e20e, 2023-11-25, custom)"
   xmlns:inkscape="http://www.inkscape.org/namespaces/inkscape"
   xmlns:sodipodi="http://sodipodi.sourceforge.net/DTD/sodipodi-0.dtd"
   xmlns="http://www.w3.org/2000/svg"
   xmlns:svg="http://www.w3.org/2000/svg">
  <defs
     id="defs1" />
  <sodipodi:namedview
     id="namedview1"
     pagecolor="#727272"
     bordercolor="#000000"
     borderopacity="0.25"
     inkscape:showpageshadow="2"
     inkscape:pageopacity="0.0"
     inkscape:pagecheckerboard="true"
     inkscape:deskcolor="#d1d1d1"
     inkscape:zoom="1.6862839"
     inkscape:cx="164.85954"
     inkscape:cy="248.77187"
     inkscape:window-width="2560"
     inkscape:window-height="1417"
     inkscape:window-x="1592"
     inkscape:window-y="1072"
     inkscape:window-maximized="1"
     inkscape:current-layer="svg1" />
  <path
     fill="#fff"
     d="m 256,20.411096 c 24.54052,23.558891 98.16204,70.676671 147.24306,70.676671 V 185.32333 C 403.24306,279.55889 329.62154,420.91223 256,491.5889 182.37846,420.91223 108.75694,279.55889 108.75694,185.32333 V 91.087767 c 49.08102,0 122.70254,-47.11778 147.24306,-70.676671 z"
     id="path1-3"
     style="fill:none;stroke:#ffffff;stroke-width:29.4486;stroke-dasharray:none;stroke-opacity:1"
     inkscape:label="Original" />
  <path
     id="path1"
     style="fill:#ffffff;fill-opacity:1;stroke:#ffffff;stroke-width:14.7244;stroke-dasharray:none;stroke-opacity:1"
     d="M 256,20.411096 C 231.4595,43.969963 157.83791,91.087767 108.75694,91.087767 v 94.235563 c 0,94.23546 73.62159,235.58897 147.24306,306.26557 38.89291,-37.3372 77.67349,-94.42272 105.71209,-153.84217 C 304.50845,262.23499 256.54257,155.53691 256.54257,79.484707 v -58.5828 C 256.37721,20.745182 256.16116,20.56581 256,20.411096 Z" />
</svg>
