<?xml version="1.0" encoding="UTF-8" standalone="no"?>
<svg
   viewBox="0 0 512 512"
   width="512"
   height="512"
   version="1.1"
   id="svg1"
   sodipodi:docname="no-cover.svg"
   inkscape:version="1.3.2 (091e20e, 2023-11-25, custom)"
   xmlns:inkscape="http://www.inkscape.org/namespaces/inkscape"
   xmlns:sodipodi="http://sodipodi.sourceforge.net/DTD/sodipodi-0.dtd"
   xmlns="http://www.w3.org/2000/svg"
   xmlns:svg="http://www.w3.org/2000/svg">
  <defs
     id="defs1" />
  <sodipodi:namedview
     id="namedview1"
     pagecolor="#727272"
     bordercolor="#000000"
     borderopacity="0.25"
     inkscape:showpageshadow="2"
     inkscape:pageopacity="0.0"
     inkscape:pagecheckerboard="true"
     inkscape:deskcolor="#d1d1d1"
     inkscape:zoom="1.6862839"
     inkscape:cx="176.71994"
     inkscape:cy="318.1552"
     inkscape:window-width="2560"
     inkscape:window-height="1417"
     inkscape:window-x="1592"
     inkscape:window-y="1072"
     inkscape:window-maximized="1"
     inkscape:current-layer="svg1" />
  <path
     fill="#fff"
     d="m 256,20.411096 c 24.54052,23.558891 98.16204,70.676671 147.24306,70.676671 V 185.32333 C 403.24306,279.55889 329.62154,420.91223 256,491.5889 182.37846,420.91223 108.75694,279.55889 108.75694,185.32333 V 91.087767 c 49.08102,0 122.70254,-47.11778 147.24306,-70.676671 z"
     id="path1"
     style="fill:none;stroke:#ffffff;stroke-width:29.4486;stroke-dasharray:none;stroke-opacity:1" />
  <path
     fill="#ffffff"
     d="m 190.16036,98.878218 c 9.89767,6.605862 19.7175,13.375122 29.32089,20.347982 -19.27137,-8.93743 -40.42477,-15.36321 -63.89004,-18.92535 19.97371,11.42895 39.17837,23.77324 58.04511,36.58119 -15.91283,-7.71326 -33.14052,-13.78146 -52.01283,-17.69519 24.90158,14.68055 46.77998,30.99545 66.17413,48.84934 -24.52604,20.19442 -45.79493,44.78462 -63.12013,74.49604 11.59576,-10.38957 23.48665,-20.33644 35.44514,-30.23197 -19.98185,23.893 -35.76167,51.9735 -46.39076,84.96217 8.70858,-10.53071 17.5318,-20.61788 26.47863,-30.29055 19.11954,-28.86538 38.3105,-62.92338 63.67019,-72.89292 -12.66508,13.13473 -27.10098,32.14991 -42.02447,50.53418 17.53265,-17.29613 35.54009,-33.13198 54.0715,-47.69704 26.34731,30.15069 47.3741,63.89432 65.07698,100.88997 -2.88202,-19.15974 -7.18416,-37.37675 -12.84472,-54.60658 l 19.86549,28.02915 c 0,0 -11.13681,-31.0917 -18.6747,-43.6229 17.43428,23.91437 33.45192,48.94429 48.04607,74.94044 -7.98744,-38.26217 -21.60551,-72.61659 -42.29952,-101.89557 14.93034,14.83796 29.35811,30.41161 43.17081,46.64182 -14.26138,-32.71365 -31.99848,-61.37456 -53.96928,-84.82272 17.20501,-11.07265 34.85146,-21.27101 52.97994,-30.70375 -13.69806,2.37818 -26.72887,5.52628 -39.35374,9.38183 9.33992,-6.91767 18.99548,-13.7404 28.66819,-20.32702 -16.24819,5.09427 -31.92277,11.02475 -46.65124,17.72215 18.25038,-11.83658 36.92167,-22.95541 56.03436,-33.62044 h -9.9e-4 c -28.85894,7.72266 -55.95993,18.04594 -80.84012,31.45869 -24.07864,-17.87484 -52.18735,-30.70546 -84.97416,-37.503374 z"
     id="path1-9"
     style="stroke-width:0.427986;stroke-dasharray:none" />
</svg>
